<svg xmlns="http://www.w3.org/2000/svg" version="1.1" xmlns:xlink="http://www.w3.org/1999/xlink" xmlns:svgjs="http://svgjs.dev/svgjs" width="1000" height="353" viewBox="0 0 1000 353"><g transform="matrix(1,0,0,1,-1.188034371118306,0.7546979087972545)"><svg viewBox="0 0 164 58" data-background-color="#ffffff" preserveAspectRatio="xMidYMid meet" height="353" width="1000" xmlns="http://www.w3.org/2000/svg" xmlns:xlink="http://www.w3.org/1999/xlink"><g id="tight-bounds" transform="matrix(1,0,0,1,0.1948376754455694,-0.12400135611966334)"><svg viewBox="0 0 163.61032468769096 58.248" height="58.248" width="163.61032468769096"><g><svg viewBox="0 0 163.61032468769096 58.248" height="58.248" width="163.61032468769096"><g><svg viewBox="0 0 163.61032468769096 58.248" height="58.248" width="163.61032468769096"><g id="textblocktransform"><svg viewBox="0 0 163.61032468769096 58.248" height="58.248" width="163.61032468769096" id="textblock"><g><svg viewBox="0 0 163.61032468769096 58.248" height="58.248" width="163.61032468769096"><g><svg><g></g><g></g></svg></g><g><svg><g><svg></svg></g><g></g></svg></g><g id="text-0"><svg viewBox="0 0 163.61032468769096 58.248" height="58.248" width="163.61032468769096"><g transform="matrix(1,0,0,1,0,0)"><svg width="103.39020000000001" viewBox="1.850000023841858 -35.5 63.88999938964844 36" height="58.248" data-palette-color="#6b7280"><path d="M16.45 0.1L16.45 0.1Q15.65 0.1 14.85 0.05 14.05 0 13.2-0.05L13.2-0.05Q12.85-2.75 12.45-5.1 12.05-7.45 11.5-9.43 10.95-11.4 10.18-12.98 9.4-14.55 8.35-15.7L8.35-15.7Q7.75-16.35 7-16.75 6.25-17.15 5.5-17.25L5.5-17.25 5.5-18.05 13.6-34.7Q14.45-34.9 15.2-34.98 15.95-35.05 16.55-35.05L16.55-35.05Q19.05-35.05 18.45-33.8L18.45-33.8 11.2-19.95Q14.1-17.6 15.88-12.78 17.65-7.95 18.3-0.95L18.3-0.95Q18.35-0.4 18-0.15 17.65 0.1 16.45 0.1ZM1.85 0L1.85 0 1.85-34.1Q1.85-34.55 2.08-34.73 2.3-34.9 3.25-34.95 4.2-35 6.5-35L6.5-35 6.5-0.9Q6.5-0.45 6.33-0.28 6.15-0.1 5.18-0.05 4.2 0 1.85 0ZM21.4 0L21.4 0 21.4-32.95Q21.4-34 21.6-34.43 21.8-34.85 22.77-34.93 23.75-35 26.05-35L26.05-35 26.05-0.9Q26.05-0.45 25.85-0.28 25.65-0.1 24.67-0.05 23.7 0 21.4 0ZM38.34 0.5L38.34 0.5Q35.9 0.5 34.2-0.3 32.5-1.1 31.42-3.15 30.35-5.2 29.85-8.72 29.35-12.25 29.35-17.7L29.35-17.7Q29.35-24.4 30.4-28.28 31.45-32.15 33.57-33.83 35.7-35.5 38.9-35.5L38.9-35.5Q41.34-35.5 43.05-34.65 44.75-33.8 45.8-31.8 46.84-29.8 47.32-26.4 47.8-23 47.8-17.85L47.8-17.85Q47.8-10.9 46.8-6.9 45.8-2.9 43.72-1.2 41.65 0.5 38.34 0.5ZM38.55-4.2L38.55-4.2Q40.2-4.2 41.09-5.55 42-6.9 42.4-9.9 42.8-12.9 42.8-17.75L42.8-17.75Q42.8-22.55 42.47-25.4 42.15-28.25 41.3-29.53 40.45-30.8 38.8-30.8L38.8-30.8Q37.25-30.8 36.3-29.43 35.34-28.05 34.92-24.95 34.5-21.85 34.5-16.6L34.5-16.6Q34.5-12.2 34.84-9.47 35.2-6.75 36.09-5.48 37-4.2 38.55-4.2ZM56.74 0.5L56.74 0.5Q53.39 0.5 51.79-0.5 50.19-1.5 50.19-2.6L50.19-2.6Q50.19-3.3 50.47-4.23 50.74-5.15 51.29-5.9L51.29-5.9Q52.09-5.2 53.37-4.7 54.64-4.2 56.29-4.2L56.29-4.2Q58.74-4.2 59.77-5.48 60.79-6.75 60.79-8.85L60.79-8.85Q60.79-10.45 60.22-11.8 59.64-13.15 58.09-15L58.09-15 53.24-20.9Q51.54-23.05 50.87-24.75 50.19-26.45 50.19-28.15L50.19-28.15Q50.19-31.4 52.42-33.45 54.64-35.5 58.94-35.5L58.94-35.5Q62.54-35.5 64.04-34.77 65.54-34.05 65.54-32.9L65.54-32.9Q65.54-32.35 65.29-31.65 65.04-30.95 64.44-30.3L64.44-30.3Q63.99-30.65 62.69-31.05 61.39-31.45 59.74-31.45L59.74-31.45Q57.64-31.45 56.39-30.63 55.14-29.8 55.14-28.3L55.14-28.3Q55.14-27 55.69-25.93 56.24-24.85 57.29-23.5L57.29-23.5 62.49-17.35Q64.39-15.05 65.07-13.18 65.74-11.3 65.74-9.05L65.74-9.05Q65.74-6.5 64.92-4.33 64.09-2.15 62.17-0.83 60.24 0.5 56.74 0.5Z" opacity="1" transform="matrix(1,0,0,1,0,0)" fill="#000000" class="undefined-text-0" data-fill-palette-color="primary"></path></svg></g><g><svg xmlns="http://www.w3.org/2000/svg" xmlns:xlink="http://www.w3.org/1999/xlink" version="1.1" x="117.1422" y="0" viewBox="16.201921463012695 6.679411888122559 68.62407684326172 86.02058410644531" style="enable-background:new 0 0 100 100;" xml:space="preserve" height="58.248" width="46.46812468769096" class="icon-s-0" data-fill-palette-color="accent" id="s-0"><path d="M72 92.7H43.8c-4.9 0-9.4-2.8-11.5-7.2L17.5 55.2c-1.5-3.1-1.7-6.5-0.6-9.7l10.2-29.9c1.7-4.9 6.2-8.3 11.4-8.6l5.7-0.3c5.3-0.3 10.3 2.7 12.4 7.6l27.1 60.5c1.8 4 1.4 8.5-0.9 12.2S76.4 92.7 72 92.7zM45 7.6c-0.2 0-0.5 0-0.7 0l-5.7 0.3c-4.8 0.3-8.9 3.4-10.5 8L17.9 45.8c-1 3-0.8 6.2 0.6 9l14.8 30.3c2 4 6.1 6.6 10.6 6.6H72c4 0 7.7-2 9.9-5.4s2.5-7.6 0.9-11.2L55.7 14.6C53.9 10.3 49.6 7.6 45 7.6z" fill="#000000" data-fill-palette-color="accent"></path></svg></g></svg></g></svg></g></svg></g></svg></g></svg></g><defs></defs></svg><rect width="163.61032468769096" height="58.248" fill="none" stroke="none" visibility="hidden"></rect></g></svg></g></svg>