<svg xmlns="http://www.w3.org/2000/svg" version="1.1" xmlns:xlink="http://www.w3.org/1999/xlink" xmlns:svgjs="http://svgjs.dev/svgjs" width="128" height="128" viewBox="0 0 128 128"><g transform="matrix(0.64375,0,0,0.64375,22.892831209369774,12.760752631578946)"><svg viewBox="0 0 76 95" data-background-color="#ffffff" preserveAspectRatio="xMidYMid meet" height="160" width="128" xmlns="http://www.w3.org/2000/svg" xmlns:xlink="http://www.w3.org/1999/xlink"><g id="tight-bounds" transform="matrix(1,0,0,1,-0.08562101835076419,-0.24049999999999727)"><svg viewBox="0 0 76.17124203670151 95.48100000000001" height="95.48100000000001" width="76.17124203670151"><g><svg viewBox="0 0 76.17124203670151 95.48100000000001" height="95.48100000000001" width="76.17124203670151"><g><svg viewBox="0 0 76.17124203670151 95.48100000000001" height="95.48100000000001" width="76.17124203670151"><g id="textblocktransform"><svg viewBox="0 0 76.17124203670151 95.48100000000001" height="95.48100000000001" width="76.17124203670151" id="textblock"><g><svg viewBox="0 0 76.17124203670151 95.48100000000001" height="95.48100000000001" width="76.17124203670151"><g><svg viewBox="0 0 76.17124203670151 95.48100000000001" height="95.48100000000001" width="76.17124203670151"><g><svg xmlns="http://www.w3.org/2000/svg" xmlns:xlink="http://www.w3.org/1999/xlink" version="1.1" x="0" y="0" viewBox="16.201923076923077 6.679412035368333 68.62407207709735 86.02058796463167" style="enable-background:new 0 0 100 100;" xml:space="preserve" height="95.48100000000001" width="76.17124203670151" class="icon-icon-0" data-fill-palette-color="accent" id="icon-0"><path d="M72 92.7H43.8c-4.9 0-9.4-2.8-11.5-7.2L17.5 55.2c-1.5-3.1-1.7-6.5-0.6-9.7l10.2-29.9c1.7-4.9 6.2-8.3 11.4-8.6l5.7-0.3c5.3-0.3 10.3 2.7 12.4 7.6l27.1 60.5c1.8 4 1.4 8.5-0.9 12.2S76.4 92.7 72 92.7zM45 7.6c-0.2 0-0.5 0-0.7 0l-5.7 0.3c-4.8 0.3-8.9 3.4-10.5 8L17.9 45.8c-1 3-0.8 6.2 0.6 9l14.8 30.3c2 4 6.1 6.6 10.6 6.6H72c4 0 7.7-2 9.9-5.4s2.5-7.6 0.9-11.2L55.7 14.6C53.9 10.3 49.6 7.6 45 7.6z" fill="#000000" data-fill-palette-color="accent"></path></svg></g></svg></g></svg></g></svg></g></svg></g></svg></g><defs></defs></svg><rect width="76.17124203670151" height="95.48100000000001" fill="none" stroke="none" visibility="hidden"></rect></g></svg></g></svg>